<svg width="255" height="48" viewBox="0 0 255 48" fill="none" xmlns="http://www.w3.org/2000/svg">
<path d="M0 23.9056C0 11.0842 10.3938 0.69043 23.2152 0.69043H63.4661C74.4196 0.69043 83.2992 9.57004 83.2992 20.5236V47.1208H23.2151C10.3938 47.1208 0 36.727 0 23.9056V23.9056Z" fill="#7754D6"/>
<rect x="7.53821" y="8.67502" width="67.8455" height="30.119" rx="15.0595" fill="#99A4EB"/>
<circle cx="56.7848" cy="23.7345" r="9.0461" fill="#100634"/>
<circle cx="55.3867" cy="21.6066" r="3.84271" fill="#C0B8EA"/>
<circle cx="23.4437" cy="23.7345" r="9.0461" fill="#100634"/>
<circle cx="22.0455" cy="21.6066" r="3.84271" fill="#C0B8EA"/>
<path d="M100.075 29.2498H106.005V33.9056H93.9225V14.2848H100.075V29.2498ZM115.368 34.0996C113.798 34.0996 112.385 33.7763 111.128 33.1296C109.872 32.483 108.884 31.5592 108.163 30.3583C107.461 29.1389 107.11 27.7163 107.11 26.0905C107.11 24.4647 107.461 23.0513 108.163 21.8504C108.884 20.631 109.872 19.698 111.128 19.0514C112.385 18.4048 113.798 18.0814 115.368 18.0814C116.939 18.0814 118.352 18.4048 119.609 19.0514C120.865 19.698 121.844 20.631 122.546 21.8504C123.267 23.0513 123.627 24.4647 123.627 26.0905C123.627 27.7163 123.267 29.1389 122.546 30.3583C121.844 31.5592 120.865 32.483 119.609 33.1296C118.352 33.7763 116.939 34.0996 115.368 34.0996ZM115.368 28.7787C115.941 28.7787 116.422 28.557 116.81 28.1136C117.198 27.6517 117.392 26.9773 117.392 26.0905C117.392 25.2037 117.198 24.5386 116.81 24.0952C116.422 23.6333 115.941 23.4023 115.368 23.4023C114.796 23.4023 114.315 23.6333 113.927 24.0952C113.539 24.5386 113.345 25.2037 113.345 26.0905C113.345 26.9773 113.53 27.6517 113.9 28.1136C114.288 28.557 114.777 28.7787 115.368 28.7787ZM131.185 18.0814C132.202 18.0814 133.079 18.2939 133.818 18.7188C134.557 19.1253 135.121 19.6888 135.509 20.4093V18.2754H141.633V33.6284C141.633 35.088 141.365 36.4182 140.83 37.6191C140.294 38.82 139.425 39.7807 138.225 40.5013C137.042 41.2218 135.518 41.5821 133.652 41.5821C131.139 41.5821 129.144 40.9909 127.666 39.8084C126.206 38.6445 125.375 37.0556 125.172 35.0418H131.213C131.379 35.8547 132.045 36.2612 133.209 36.2612C133.929 36.2612 134.493 36.0764 134.899 35.7069C135.305 35.3374 135.509 34.6446 135.509 33.6284V31.7717C135.121 32.4922 134.557 33.065 133.818 33.4899C133.079 33.8963 132.202 34.0996 131.185 34.0996C129.966 34.0996 128.867 33.7855 127.888 33.1573C126.908 32.5107 126.132 31.5869 125.56 30.386C125.005 29.1667 124.728 27.7348 124.728 26.0905C124.728 24.4462 125.005 23.0236 125.56 21.8227C126.132 20.6033 126.908 19.6796 127.888 19.0514C128.867 18.4048 129.966 18.0814 131.185 18.0814ZM135.509 26.0905C135.509 25.2591 135.296 24.6125 134.871 24.1506C134.446 23.6887 133.901 23.4578 133.236 23.4578C132.571 23.4578 132.026 23.6887 131.601 24.1506C131.176 24.6125 130.964 25.2591 130.964 26.0905C130.964 26.9219 131.176 27.5685 131.601 28.0304C132.026 28.4923 132.571 28.7232 133.236 28.7232C133.901 28.7232 134.446 28.4923 134.871 28.0304C135.296 27.5685 135.509 26.9219 135.509 26.0905ZM151.823 34.0996C150.253 34.0996 148.839 33.7763 147.583 33.1296C146.327 32.483 145.338 31.5592 144.618 30.3583C143.916 29.1389 143.565 27.7163 143.565 26.0905C143.565 24.4647 143.916 23.0513 144.618 21.8504C145.338 20.631 146.327 19.698 147.583 19.0514C148.839 18.4048 150.253 18.0814 151.823 18.0814C153.393 18.0814 154.807 18.4048 156.063 19.0514C157.319 19.698 158.299 20.631 159.001 21.8504C159.721 23.0513 160.081 24.4647 160.081 26.0905C160.081 27.7163 159.721 29.1389 159.001 30.3583C158.299 31.5592 157.319 32.483 156.063 33.1296C154.807 33.7763 153.393 34.0996 151.823 34.0996ZM151.823 28.7787C152.396 28.7787 152.876 28.557 153.264 28.1136C153.652 27.6517 153.846 26.9773 153.846 26.0905C153.846 25.2037 153.652 24.5386 153.264 24.0952C152.876 23.6333 152.396 23.4023 151.823 23.4023C151.25 23.4023 150.77 23.6333 150.382 24.0952C149.994 24.5386 149.8 25.2037 149.8 26.0905C149.8 26.9773 149.985 27.6517 150.354 28.1136C150.742 28.557 151.232 28.7787 151.823 28.7787ZM165.118 17.0284C164.047 17.0284 163.187 16.742 162.541 16.1693C161.894 15.5965 161.571 14.876 161.571 14.0076C161.571 13.1208 161.894 12.391 162.541 11.8183C163.187 11.2271 164.047 10.9315 165.118 10.9315C166.171 10.9315 167.021 11.2271 167.668 11.8183C168.314 12.391 168.638 13.1208 168.638 14.0076C168.638 14.876 168.314 15.5965 167.668 16.1693C167.021 16.742 166.171 17.0284 165.118 17.0284ZM168.167 18.2754V33.9056H162.014V18.2754H168.167ZM177.097 20.4093C177.485 19.6888 178.04 19.1253 178.76 18.7188C179.499 18.2939 180.377 18.0814 181.393 18.0814C182.612 18.0814 183.712 18.4048 184.691 19.0514C185.67 19.6796 186.437 20.6033 186.991 21.8227C187.564 23.0236 187.85 24.4462 187.85 26.0905C187.85 27.7348 187.564 29.1667 186.991 30.386C186.437 31.5869 185.67 32.5107 184.691 33.1573C183.712 33.7855 182.612 34.0996 181.393 34.0996C180.377 34.0996 179.499 33.8963 178.76 33.4899C178.04 33.065 177.485 32.4922 177.097 31.7717V41.3881H170.945V18.2754H177.097V20.4093ZM181.615 26.0905C181.615 25.2591 181.402 24.6125 180.977 24.1506C180.552 23.6887 180.007 23.4578 179.342 23.4578C178.677 23.4578 178.132 23.6887 177.707 24.1506C177.282 24.6125 177.07 25.2591 177.07 26.0905C177.07 26.9219 177.282 27.5685 177.707 28.0304C178.132 28.4923 178.677 28.7232 179.342 28.7232C180.007 28.7232 180.552 28.4923 180.977 28.0304C181.402 27.5685 181.615 26.9219 181.615 26.0905ZM196.737 34.0996C195.259 34.0996 193.948 33.8594 192.802 33.379C191.675 32.8987 190.779 32.2336 190.114 31.3837C189.449 30.5338 189.07 29.5731 188.978 28.5015H194.881C194.954 28.9634 195.148 29.3052 195.463 29.5269C195.795 29.7486 196.211 29.8595 196.71 29.8595C197.024 29.8595 197.273 29.7948 197.458 29.6655C197.643 29.5177 197.735 29.3422 197.735 29.1389C197.735 28.7879 197.541 28.5385 197.153 28.3907C196.765 28.2429 196.109 28.0766 195.185 27.8919C194.058 27.6702 193.125 27.43 192.386 27.1713C191.666 26.9127 191.028 26.4693 190.474 25.8411C189.938 25.2129 189.671 24.3446 189.671 23.2361C189.671 22.2754 189.92 21.407 190.419 20.631C190.936 19.8366 191.694 19.2177 192.691 18.7743C193.689 18.3124 194.899 18.0814 196.322 18.0814C198.428 18.0814 200.072 18.5988 201.255 19.6334C202.455 20.668 203.176 22.0167 203.416 23.6795H197.957C197.864 23.2545 197.67 22.9312 197.375 22.7095C197.079 22.4693 196.682 22.3493 196.183 22.3493C195.869 22.3493 195.629 22.4139 195.463 22.5432C195.296 22.6541 195.213 22.8296 195.213 23.0698C195.213 23.3839 195.407 23.6241 195.795 23.7903C196.183 23.9381 196.802 24.0952 197.652 24.2615C198.779 24.4832 199.73 24.7326 200.506 25.0097C201.282 25.2868 201.957 25.7672 202.529 26.4508C203.102 27.1159 203.388 28.0397 203.388 29.2221C203.388 30.1458 203.121 30.9772 202.585 31.7163C202.049 32.4553 201.273 33.0372 200.257 33.4622C199.259 33.8871 198.086 34.0996 196.737 34.0996ZM222.375 18.2754V33.9056H216.222V31.5223C215.742 32.2613 215.095 32.8617 214.282 33.3236C213.488 33.7855 212.537 34.0164 211.428 34.0164C209.636 34.0164 208.232 33.416 207.216 32.2151C206.218 31.0142 205.719 29.3884 205.719 27.3376V18.2754H211.844V26.5616C211.844 27.3006 212.038 27.8919 212.426 28.3353C212.832 28.7602 213.368 28.9727 214.033 28.9727C214.717 28.9727 215.252 28.7602 215.64 28.3353C216.028 27.8919 216.222 27.3006 216.222 26.5616V18.2754H222.375ZM246.021 18.1646C248.017 18.1646 249.559 18.765 250.649 19.9659C251.758 21.1668 252.312 22.7927 252.312 24.8434V33.9056H246.188V25.6194C246.188 24.9543 245.984 24.437 245.578 24.0675C245.19 23.6795 244.663 23.4855 243.998 23.4855C243.315 23.4855 242.779 23.6795 242.391 24.0675C242.003 24.437 241.809 24.9543 241.809 25.6194V33.9056H235.684V25.6194C235.684 24.9543 235.481 24.437 235.075 24.0675C234.687 23.6795 234.16 23.4855 233.495 23.4855C232.811 23.4855 232.276 23.6795 231.888 24.0675C231.5 24.437 231.306 24.9543 231.306 25.6194V33.9056H225.153V18.2754H231.306V20.3816C231.749 19.7165 232.349 19.1807 233.107 18.7743C233.883 18.3678 234.788 18.1646 235.823 18.1646C236.95 18.1646 237.948 18.414 238.816 18.9128C239.684 19.3932 240.377 20.0768 240.894 20.9636C241.467 20.1507 242.197 19.4856 243.084 18.9683C243.97 18.4325 244.95 18.1646 246.021 18.1646Z" fill="#452F81"/>
</svg>
