<svg width="19" height="20" viewBox="0 0 19 20" fill="none" xmlns="http://www.w3.org/2000/svg">
<path fill-rule="evenodd" clip-rule="evenodd" d="M8.57806 0.829282C8.9522 0.829282 9.25585 1.13293 9.25585 1.50707C9.25585 1.88121 8.9522 2.18485 8.57806 2.18485H5.19907C2.86387 2.18485 1.35557 3.78443 1.35557 6.25971V13.7732C1.35557 16.2485 2.86387 17.848 5.19907 17.848H13.1735C15.5087 17.848 17.0179 16.2485 17.0179 13.7732V10.133C17.0179 9.75889 17.3215 9.45524 17.6956 9.45524C18.0698 9.45524 18.3734 9.75889 18.3734 10.133V13.7732C18.3734 17.0211 16.2831 19.2036 13.1735 19.2036H5.19907C2.08939 19.2036 0 17.0211 0 13.7732V6.25971C0 3.01175 2.08939 0.829282 5.19907 0.829282H8.57806ZM16.4491 1.62329L17.5489 2.72311C18.0848 3.25811 18.3794 3.96933 18.3785 4.72664C18.3785 5.48396 18.0839 6.19428 17.5489 6.72837L10.7629 13.5144C10.2649 14.0123 9.60161 14.287 8.89671 14.287H5.5114C5.32885 14.287 5.15353 14.2129 5.0261 14.0819C4.89868 13.9518 4.82909 13.7755 4.83361 13.5921L4.91856 10.1769C4.93573 9.49751 5.20943 8.85871 5.69001 8.37707C5.69022 8.37686 5.6905 8.37675 5.69078 8.37675C5.69107 8.37675 5.69135 8.37663 5.69156 8.37643L12.4447 1.62329C13.549 0.520754 15.3447 0.520754 16.4491 1.62329ZM13.4822 5.6897C12.602 4.80946 11.1748 4.80949 10.2946 5.68978L6.64917 9.33559C6.41511 9.56965 6.28227 9.88053 6.27413 10.2104L6.27335 10.2419C6.23662 11.7164 7.42183 12.9315 8.89671 12.9315C9.24013 12.9315 9.56185 12.7986 9.80495 12.5555L13.4824 8.87702C14.3625 7.99677 14.3624 6.56983 13.4822 5.6897ZM13.4026 2.58213C13.0955 2.88848 13.0951 3.3859 13.4018 3.69269L15.4773 5.76873C15.7847 6.07623 16.2831 6.07659 16.5909 5.76953C16.8693 5.49119 17.0229 5.12066 17.0229 4.72664C17.0229 4.33172 16.8693 3.96029 16.5909 3.68195L15.4911 2.58213C14.9155 2.00827 13.9792 2.00827 13.4026 2.58213Z" fill="url(#paint0_linear_3_97)"/>
<defs>
<linearGradient id="paint0_linear_3_97" x1="-0.794074" y1="7.2951" x2="18.7518" y2="7.62271" gradientUnits="userSpaceOnUse">
<stop stop-color="#492C9A"/>
<stop offset="1" stop-color="#8758EA"/>
</linearGradient>
</defs>
</svg>
