<svg width="25" height="25" viewBox="0 0 25 25" fill="none" xmlns="http://www.w3.org/2000/svg">
<path fill-rule="evenodd" clip-rule="evenodd" d="M16.8814 3.04315C20.236 3.04315 22.9648 5.7719 22.9648 9.12755V16.4079C22.9648 19.7626 20.236 22.4923 16.8814 22.4923H8.1129C4.75826 22.4923 2.0285 19.7626 2.0285 16.4079V9.12755C2.0285 5.7719 4.75826 3.04315 8.1129 3.04315H16.8814ZM16.8814 4.56476H8.1129C5.59718 4.56476 3.55011 6.61182 3.55011 9.12755V16.4079C3.55011 18.9236 5.59718 20.9707 8.1129 20.9707H16.8814C19.3971 20.9707 21.4432 18.9236 21.4432 16.4079V16.1239L18.0978 16.1245C16.1735 16.1245 14.6072 14.5593 14.6062 12.636C14.6062 10.7106 16.1724 9.14438 18.0978 9.14337L21.4432 9.14276V9.12755C21.4432 6.61182 19.3971 4.56476 16.8814 4.56476ZM21.4432 10.6644L18.0978 10.665C17.0113 10.666 16.1278 11.5495 16.1278 12.6349C16.1278 13.7193 17.0124 14.6029 18.0978 14.6029L21.4432 14.6023V10.6644ZM18.562 11.8113C18.9819 11.8113 19.3228 12.1521 19.3228 12.5721C19.3228 12.992 18.9819 13.3329 18.562 13.3329H18.2455C17.8255 13.3329 17.4847 12.992 17.4847 12.5721C17.4847 12.1521 17.8255 11.8113 18.2455 11.8113H18.562ZM12.8674 7.64662C13.2874 7.64662 13.6282 7.98746 13.6282 8.40742C13.6282 8.82738 13.2874 9.16822 12.8674 9.16822H7.39064C6.97068 9.16822 6.62984 8.82738 6.62984 8.40742C6.62984 7.98746 6.97068 7.64662 7.39064 7.64662H12.8674Z" fill="#452F81"/>
</svg>
